<mxfile host="app.diagrams.net" modified="2023-11-03T06:12:49.712Z" agent="Mozilla/5.0 (Windows NT 10.0; Win64; x64) AppleWebKit/537.36 (KHTML, like Gecko) Chrome/118.0.0.0 Safari/537.36" etag="BiKeVJsLP36nOJ9NZau3" version="22.0.8" type="github">
  <diagram name="Page-1" id="uEp4EVWgefzC1EmhVkt7">
    <mxGraphModel dx="1805" dy="760" grid="0" gridSize="10" guides="1" tooltips="1" connect="1" arrows="1" fold="1" page="1" pageScale="1" pageWidth="827" pageHeight="1169" math="0" shadow="0">
      <root>
        <mxCell id="0" />
        <mxCell id="1" parent="0" />
        <mxCell id="57U_qNmCyxQekRrgPV9h-10" style="edgeStyle=orthogonalEdgeStyle;rounded=0;orthogonalLoop=1;jettySize=auto;html=1;exitX=0.5;exitY=1;exitDx=0;exitDy=0;entryX=0.5;entryY=0;entryDx=0;entryDy=0;" edge="1" parent="1" source="57U_qNmCyxQekRrgPV9h-1" target="57U_qNmCyxQekRrgPV9h-2">
          <mxGeometry relative="1" as="geometry" />
        </mxCell>
        <mxCell id="57U_qNmCyxQekRrgPV9h-11" style="edgeStyle=orthogonalEdgeStyle;rounded=0;orthogonalLoop=1;jettySize=auto;html=1;exitX=0.5;exitY=1;exitDx=0;exitDy=0;" edge="1" parent="1" source="57U_qNmCyxQekRrgPV9h-1" target="57U_qNmCyxQekRrgPV9h-5">
          <mxGeometry relative="1" as="geometry" />
        </mxCell>
        <mxCell id="57U_qNmCyxQekRrgPV9h-1" value="Manufacturers" style="rounded=1;whiteSpace=wrap;html=1;" vertex="1" parent="1">
          <mxGeometry x="360" y="120" width="120" height="60" as="geometry" />
        </mxCell>
        <mxCell id="57U_qNmCyxQekRrgPV9h-12" style="edgeStyle=orthogonalEdgeStyle;rounded=0;orthogonalLoop=1;jettySize=auto;html=1;exitX=0.5;exitY=1;exitDx=0;exitDy=0;entryX=0.5;entryY=0;entryDx=0;entryDy=0;" edge="1" parent="1" source="57U_qNmCyxQekRrgPV9h-2" target="57U_qNmCyxQekRrgPV9h-6">
          <mxGeometry relative="1" as="geometry" />
        </mxCell>
        <mxCell id="57U_qNmCyxQekRrgPV9h-13" style="edgeStyle=orthogonalEdgeStyle;rounded=0;orthogonalLoop=1;jettySize=auto;html=1;exitX=0.5;exitY=1;exitDx=0;exitDy=0;" edge="1" parent="1" source="57U_qNmCyxQekRrgPV9h-2" target="57U_qNmCyxQekRrgPV9h-7">
          <mxGeometry relative="1" as="geometry" />
        </mxCell>
        <mxCell id="57U_qNmCyxQekRrgPV9h-2" value="Distributor" style="rounded=1;whiteSpace=wrap;html=1;" vertex="1" parent="1">
          <mxGeometry x="280" y="220" width="120" height="60" as="geometry" />
        </mxCell>
        <mxCell id="57U_qNmCyxQekRrgPV9h-14" style="edgeStyle=orthogonalEdgeStyle;rounded=0;orthogonalLoop=1;jettySize=auto;html=1;exitX=0.5;exitY=1;exitDx=0;exitDy=0;entryX=0.5;entryY=0;entryDx=0;entryDy=0;" edge="1" parent="1" source="57U_qNmCyxQekRrgPV9h-5" target="57U_qNmCyxQekRrgPV9h-8">
          <mxGeometry relative="1" as="geometry" />
        </mxCell>
        <mxCell id="57U_qNmCyxQekRrgPV9h-15" style="edgeStyle=orthogonalEdgeStyle;rounded=0;orthogonalLoop=1;jettySize=auto;html=1;exitX=0.5;exitY=1;exitDx=0;exitDy=0;" edge="1" parent="1" source="57U_qNmCyxQekRrgPV9h-5" target="57U_qNmCyxQekRrgPV9h-9">
          <mxGeometry relative="1" as="geometry" />
        </mxCell>
        <mxCell id="57U_qNmCyxQekRrgPV9h-5" value="Distributor" style="rounded=1;whiteSpace=wrap;html=1;" vertex="1" parent="1">
          <mxGeometry x="440" y="220" width="120" height="60" as="geometry" />
        </mxCell>
        <mxCell id="57U_qNmCyxQekRrgPV9h-6" value="Shopkeeper" style="rounded=1;whiteSpace=wrap;html=1;" vertex="1" parent="1">
          <mxGeometry x="140" y="320" width="120" height="60" as="geometry" />
        </mxCell>
        <mxCell id="57U_qNmCyxQekRrgPV9h-7" value="Shopkeeper" style="rounded=1;whiteSpace=wrap;html=1;" vertex="1" parent="1">
          <mxGeometry x="280" y="320" width="120" height="60" as="geometry" />
        </mxCell>
        <mxCell id="57U_qNmCyxQekRrgPV9h-8" value="Shopkeeper" style="rounded=1;whiteSpace=wrap;html=1;" vertex="1" parent="1">
          <mxGeometry x="440" y="320" width="120" height="60" as="geometry" />
        </mxCell>
        <mxCell id="57U_qNmCyxQekRrgPV9h-9" value="Shopkeeper" style="rounded=1;whiteSpace=wrap;html=1;" vertex="1" parent="1">
          <mxGeometry x="580" y="320" width="120" height="60" as="geometry" />
        </mxCell>
        <mxCell id="57U_qNmCyxQekRrgPV9h-59" value="product details display board per shop / mall" style="rounded=0;whiteSpace=wrap;html=1;" vertex="1" parent="1">
          <mxGeometry x="393.25" y="687" width="263.5" height="18" as="geometry" />
        </mxCell>
        <mxCell id="57U_qNmCyxQekRrgPV9h-60" value="" style="ellipse;shape=cloud;whiteSpace=wrap;html=1;" vertex="1" parent="1">
          <mxGeometry x="199" y="396" width="510" height="298" as="geometry" />
        </mxCell>
        <mxCell id="57U_qNmCyxQekRrgPV9h-61" value="" style="shape=cylinder3;whiteSpace=wrap;html=1;boundedLbl=1;backgroundOutline=1;size=4.500000000000114;" vertex="1" parent="1">
          <mxGeometry x="418" y="457" width="30" height="33" as="geometry" />
        </mxCell>
        <mxCell id="57U_qNmCyxQekRrgPV9h-62" value="" style="shape=cylinder3;whiteSpace=wrap;html=1;boundedLbl=1;backgroundOutline=1;size=4.500000000000114;" vertex="1" parent="1">
          <mxGeometry x="320" y="525.5" width="30" height="33" as="geometry" />
        </mxCell>
        <mxCell id="57U_qNmCyxQekRrgPV9h-63" value="" style="shape=cylinder3;whiteSpace=wrap;html=1;boundedLbl=1;backgroundOutline=1;size=4.500000000000114;" vertex="1" parent="1">
          <mxGeometry x="370" y="525.5" width="30" height="33" as="geometry" />
        </mxCell>
        <mxCell id="57U_qNmCyxQekRrgPV9h-64" value="" style="shape=cylinder3;whiteSpace=wrap;html=1;boundedLbl=1;backgroundOutline=1;size=4.500000000000114;" vertex="1" parent="1">
          <mxGeometry x="418" y="525.5" width="30" height="33" as="geometry" />
        </mxCell>
        <mxCell id="57U_qNmCyxQekRrgPV9h-65" value="" style="shape=cylinder3;whiteSpace=wrap;html=1;boundedLbl=1;backgroundOutline=1;size=4.500000000000114;" vertex="1" parent="1">
          <mxGeometry x="466" y="525.5" width="30" height="33" as="geometry" />
        </mxCell>
        <mxCell id="57U_qNmCyxQekRrgPV9h-66" value="" style="shape=cylinder3;whiteSpace=wrap;html=1;boundedLbl=1;backgroundOutline=1;size=4.500000000000114;" vertex="1" parent="1">
          <mxGeometry x="510" y="525.5" width="30" height="33" as="geometry" />
        </mxCell>
        <mxCell id="57U_qNmCyxQekRrgPV9h-67" value="" style="rounded=0;whiteSpace=wrap;html=1;" vertex="1" parent="1">
          <mxGeometry x="308" y="594" width="242" height="26" as="geometry" />
        </mxCell>
        <mxCell id="57U_qNmCyxQekRrgPV9h-68" value="" style="shape=cylinder3;whiteSpace=wrap;html=1;boundedLbl=1;backgroundOutline=1;size=3.063492063492049;" vertex="1" parent="1">
          <mxGeometry x="320" y="605" width="11" height="12" as="geometry" />
        </mxCell>
        <mxCell id="57U_qNmCyxQekRrgPV9h-69" value="" style="shape=cylinder3;whiteSpace=wrap;html=1;boundedLbl=1;backgroundOutline=1;size=3.063492063492049;" vertex="1" parent="1">
          <mxGeometry x="339" y="605" width="11" height="12" as="geometry" />
        </mxCell>
        <mxCell id="57U_qNmCyxQekRrgPV9h-70" value="" style="shape=cylinder3;whiteSpace=wrap;html=1;boundedLbl=1;backgroundOutline=1;size=3.063492063492049;" vertex="1" parent="1">
          <mxGeometry x="370" y="605" width="11" height="12" as="geometry" />
        </mxCell>
        <mxCell id="57U_qNmCyxQekRrgPV9h-71" value="" style="shape=cylinder3;whiteSpace=wrap;html=1;boundedLbl=1;backgroundOutline=1;size=3.063492063492049;" vertex="1" parent="1">
          <mxGeometry x="389" y="605" width="11" height="12" as="geometry" />
        </mxCell>
        <mxCell id="57U_qNmCyxQekRrgPV9h-72" value="" style="shape=cylinder3;whiteSpace=wrap;html=1;boundedLbl=1;backgroundOutline=1;size=3.063492063492049;" vertex="1" parent="1">
          <mxGeometry x="418" y="605" width="11" height="12" as="geometry" />
        </mxCell>
        <mxCell id="57U_qNmCyxQekRrgPV9h-73" value="" style="shape=cylinder3;whiteSpace=wrap;html=1;boundedLbl=1;backgroundOutline=1;size=3.063492063492049;" vertex="1" parent="1">
          <mxGeometry x="437" y="605" width="11" height="12" as="geometry" />
        </mxCell>
        <mxCell id="57U_qNmCyxQekRrgPV9h-74" value="" style="shape=cylinder3;whiteSpace=wrap;html=1;boundedLbl=1;backgroundOutline=1;size=3.063492063492049;" vertex="1" parent="1">
          <mxGeometry x="466" y="605" width="11" height="12" as="geometry" />
        </mxCell>
        <mxCell id="57U_qNmCyxQekRrgPV9h-75" value="" style="shape=cylinder3;whiteSpace=wrap;html=1;boundedLbl=1;backgroundOutline=1;size=3.063492063492049;" vertex="1" parent="1">
          <mxGeometry x="485" y="605" width="11" height="12" as="geometry" />
        </mxCell>
        <mxCell id="57U_qNmCyxQekRrgPV9h-76" value="" style="shape=cylinder3;whiteSpace=wrap;html=1;boundedLbl=1;backgroundOutline=1;size=3.063492063492049;" vertex="1" parent="1">
          <mxGeometry x="510" y="605" width="11" height="12" as="geometry" />
        </mxCell>
        <mxCell id="57U_qNmCyxQekRrgPV9h-77" value="" style="shape=cylinder3;whiteSpace=wrap;html=1;boundedLbl=1;backgroundOutline=1;size=3.063492063492049;" vertex="1" parent="1">
          <mxGeometry x="529" y="605" width="11" height="12" as="geometry" />
        </mxCell>
        <mxCell id="57U_qNmCyxQekRrgPV9h-78" value="" style="shape=note;whiteSpace=wrap;html=1;backgroundOutline=1;darkOpacity=0.05;size=8;" vertex="1" parent="1">
          <mxGeometry x="601" y="466" width="29" height="21" as="geometry" />
        </mxCell>
        <mxCell id="57U_qNmCyxQekRrgPV9h-79" value="api" style="text;html=1;strokeColor=none;fillColor=none;align=center;verticalAlign=middle;whiteSpace=wrap;rounded=0;" vertex="1" parent="1">
          <mxGeometry x="601" y="469" width="21" height="15" as="geometry" />
        </mxCell>
        <mxCell id="57U_qNmCyxQekRrgPV9h-80" value="" style="endArrow=classic;html=1;rounded=0;entryX=1;entryY=0;entryDx=0;entryDy=4.500000000000114;entryPerimeter=0;exitX=0;exitY=1;exitDx=0;exitDy=-4.500000000000114;exitPerimeter=0;" edge="1" parent="1" source="57U_qNmCyxQekRrgPV9h-61" target="57U_qNmCyxQekRrgPV9h-62">
          <mxGeometry width="50" height="50" relative="1" as="geometry">
            <mxPoint x="420" y="474.5" as="sourcePoint" />
            <mxPoint x="350" y="525.5" as="targetPoint" />
          </mxGeometry>
        </mxCell>
        <mxCell id="57U_qNmCyxQekRrgPV9h-81" value="" style="endArrow=classic;html=1;rounded=0;entryX=0.855;entryY=0;entryDx=0;entryDy=1.3050000000000328;entryPerimeter=0;exitX=0.145;exitY=1;exitDx=0;exitDy=-1.3050000000000328;exitPerimeter=0;" edge="1" parent="1" source="57U_qNmCyxQekRrgPV9h-61" target="57U_qNmCyxQekRrgPV9h-63">
          <mxGeometry width="50" height="50" relative="1" as="geometry">
            <mxPoint x="433" y="476" as="sourcePoint" />
            <mxPoint x="358" y="545" as="targetPoint" />
          </mxGeometry>
        </mxCell>
        <mxCell id="57U_qNmCyxQekRrgPV9h-82" value="" style="endArrow=classic;html=1;rounded=0;entryX=0.5;entryY=0;entryDx=0;entryDy=0;entryPerimeter=0;" edge="1" parent="1" source="57U_qNmCyxQekRrgPV9h-61" target="57U_qNmCyxQekRrgPV9h-64">
          <mxGeometry width="50" height="50" relative="1" as="geometry">
            <mxPoint x="438" y="504" as="sourcePoint" />
            <mxPoint x="368" y="555" as="targetPoint" />
          </mxGeometry>
        </mxCell>
        <mxCell id="57U_qNmCyxQekRrgPV9h-83" value="" style="endArrow=classic;html=1;rounded=0;entryX=0.145;entryY=0;entryDx=0;entryDy=1.3050000000000328;entryPerimeter=0;exitX=0.855;exitY=1;exitDx=0;exitDy=-1.3050000000000328;exitPerimeter=0;" edge="1" parent="1" source="57U_qNmCyxQekRrgPV9h-61" target="57U_qNmCyxQekRrgPV9h-65">
          <mxGeometry width="50" height="50" relative="1" as="geometry">
            <mxPoint x="448" y="514" as="sourcePoint" />
            <mxPoint x="378" y="565" as="targetPoint" />
          </mxGeometry>
        </mxCell>
        <mxCell id="57U_qNmCyxQekRrgPV9h-84" value="" style="endArrow=classic;html=1;rounded=0;entryX=0;entryY=0;entryDx=0;entryDy=4.500000000000114;entryPerimeter=0;exitX=1;exitY=1;exitDx=0;exitDy=-4.500000000000114;exitPerimeter=0;" edge="1" parent="1" source="57U_qNmCyxQekRrgPV9h-61" target="57U_qNmCyxQekRrgPV9h-66">
          <mxGeometry width="50" height="50" relative="1" as="geometry">
            <mxPoint x="458" y="524" as="sourcePoint" />
            <mxPoint x="388" y="575" as="targetPoint" />
          </mxGeometry>
        </mxCell>
        <mxCell id="57U_qNmCyxQekRrgPV9h-85" value="" style="endArrow=classic;startArrow=classic;html=1;rounded=0;entryX=0.5;entryY=1;entryDx=0;entryDy=0;entryPerimeter=0;exitX=0.5;exitY=0;exitDx=0;exitDy=0;exitPerimeter=0;" edge="1" parent="1" source="57U_qNmCyxQekRrgPV9h-68" target="57U_qNmCyxQekRrgPV9h-62">
          <mxGeometry width="50" height="50" relative="1" as="geometry">
            <mxPoint x="357" y="553" as="sourcePoint" />
            <mxPoint x="407" y="503" as="targetPoint" />
          </mxGeometry>
        </mxCell>
        <mxCell id="57U_qNmCyxQekRrgPV9h-86" value="" style="endArrow=classic;startArrow=classic;html=1;rounded=0;entryX=0.5;entryY=1;entryDx=0;entryDy=0;entryPerimeter=0;exitX=0.5;exitY=0;exitDx=0;exitDy=0;exitPerimeter=0;" edge="1" parent="1" source="57U_qNmCyxQekRrgPV9h-69" target="57U_qNmCyxQekRrgPV9h-62">
          <mxGeometry width="50" height="50" relative="1" as="geometry">
            <mxPoint x="336" y="615" as="sourcePoint" />
            <mxPoint x="345" y="569" as="targetPoint" />
          </mxGeometry>
        </mxCell>
        <mxCell id="57U_qNmCyxQekRrgPV9h-87" value="" style="endArrow=classic;startArrow=classic;html=1;rounded=0;exitX=0.5;exitY=0;exitDx=0;exitDy=0;exitPerimeter=0;entryX=0.5;entryY=1;entryDx=0;entryDy=0;entryPerimeter=0;" edge="1" parent="1" source="57U_qNmCyxQekRrgPV9h-70" target="57U_qNmCyxQekRrgPV9h-63">
          <mxGeometry width="50" height="50" relative="1" as="geometry">
            <mxPoint x="375.5" y="604.5" as="sourcePoint" />
            <mxPoint x="385" y="559" as="targetPoint" />
          </mxGeometry>
        </mxCell>
        <mxCell id="57U_qNmCyxQekRrgPV9h-88" value="" style="endArrow=classic;startArrow=classic;html=1;rounded=0;entryX=0.5;entryY=1;entryDx=0;entryDy=0;entryPerimeter=0;exitX=0.5;exitY=0;exitDx=0;exitDy=0;exitPerimeter=0;" edge="1" parent="1" source="57U_qNmCyxQekRrgPV9h-71" target="57U_qNmCyxQekRrgPV9h-63">
          <mxGeometry width="50" height="50" relative="1" as="geometry">
            <mxPoint x="394.5" y="604.5" as="sourcePoint" />
            <mxPoint x="384.5" y="558.5" as="targetPoint" />
          </mxGeometry>
        </mxCell>
        <mxCell id="57U_qNmCyxQekRrgPV9h-89" value="" style="endArrow=classic;startArrow=classic;html=1;rounded=0;exitX=0.397;exitY=0.038;exitDx=0;exitDy=0;exitPerimeter=0;entryX=0.5;entryY=1;entryDx=0;entryDy=0;entryPerimeter=0;" edge="1" parent="1" source="57U_qNmCyxQekRrgPV9h-72" target="57U_qNmCyxQekRrgPV9h-64">
          <mxGeometry width="50" height="50" relative="1" as="geometry">
            <mxPoint x="346" y="625" as="sourcePoint" />
            <mxPoint x="432" y="559" as="targetPoint" />
          </mxGeometry>
        </mxCell>
        <mxCell id="57U_qNmCyxQekRrgPV9h-90" value="" style="endArrow=classic;startArrow=classic;html=1;rounded=0;entryX=0.5;entryY=1;entryDx=0;entryDy=0;entryPerimeter=0;exitX=0.5;exitY=0;exitDx=0;exitDy=0;exitPerimeter=0;" edge="1" parent="1" source="57U_qNmCyxQekRrgPV9h-73" target="57U_qNmCyxQekRrgPV9h-64">
          <mxGeometry width="50" height="50" relative="1" as="geometry">
            <mxPoint x="365" y="625" as="sourcePoint" />
            <mxPoint x="355" y="579" as="targetPoint" />
          </mxGeometry>
        </mxCell>
        <mxCell id="57U_qNmCyxQekRrgPV9h-91" value="" style="endArrow=classic;startArrow=classic;html=1;rounded=0;entryX=0.467;entryY=0.985;entryDx=0;entryDy=0;entryPerimeter=0;exitX=0.5;exitY=0;exitDx=0;exitDy=0;exitPerimeter=0;" edge="1" parent="1" source="57U_qNmCyxQekRrgPV9h-74" target="57U_qNmCyxQekRrgPV9h-65">
          <mxGeometry width="50" height="50" relative="1" as="geometry">
            <mxPoint x="356" y="635" as="sourcePoint" />
            <mxPoint x="365" y="589" as="targetPoint" />
          </mxGeometry>
        </mxCell>
        <mxCell id="57U_qNmCyxQekRrgPV9h-92" value="" style="endArrow=classic;startArrow=classic;html=1;rounded=0;entryX=0.5;entryY=1;entryDx=0;entryDy=0;entryPerimeter=0;exitX=0.5;exitY=0;exitDx=0;exitDy=0;exitPerimeter=0;" edge="1" parent="1" source="57U_qNmCyxQekRrgPV9h-75" target="57U_qNmCyxQekRrgPV9h-65">
          <mxGeometry width="50" height="50" relative="1" as="geometry">
            <mxPoint x="375" y="635" as="sourcePoint" />
            <mxPoint x="365" y="589" as="targetPoint" />
          </mxGeometry>
        </mxCell>
        <mxCell id="57U_qNmCyxQekRrgPV9h-93" value="" style="endArrow=classic;startArrow=classic;html=1;rounded=0;entryX=0.5;entryY=1;entryDx=0;entryDy=0;entryPerimeter=0;exitX=0.5;exitY=0;exitDx=0;exitDy=0;exitPerimeter=0;" edge="1" parent="1" source="57U_qNmCyxQekRrgPV9h-76" target="57U_qNmCyxQekRrgPV9h-66">
          <mxGeometry width="50" height="50" relative="1" as="geometry">
            <mxPoint x="366" y="645" as="sourcePoint" />
            <mxPoint x="375" y="599" as="targetPoint" />
          </mxGeometry>
        </mxCell>
        <mxCell id="57U_qNmCyxQekRrgPV9h-94" value="" style="endArrow=classic;startArrow=classic;html=1;rounded=0;entryX=0.5;entryY=1;entryDx=0;entryDy=0;entryPerimeter=0;exitX=0.5;exitY=0;exitDx=0;exitDy=0;exitPerimeter=0;" edge="1" parent="1" source="57U_qNmCyxQekRrgPV9h-77" target="57U_qNmCyxQekRrgPV9h-66">
          <mxGeometry width="50" height="50" relative="1" as="geometry">
            <mxPoint x="385" y="645" as="sourcePoint" />
            <mxPoint x="375" y="599" as="targetPoint" />
          </mxGeometry>
        </mxCell>
        <mxCell id="57U_qNmCyxQekRrgPV9h-95" value="Distributor database" style="text;html=1;strokeColor=none;fillColor=none;align=center;verticalAlign=middle;whiteSpace=wrap;rounded=0;" vertex="1" parent="1">
          <mxGeometry x="544" y="525.5" width="60" height="30" as="geometry" />
        </mxCell>
        <mxCell id="57U_qNmCyxQekRrgPV9h-96" value="shop/mall database" style="text;html=1;strokeColor=none;fillColor=none;align=center;verticalAlign=middle;whiteSpace=wrap;rounded=0;" vertex="1" parent="1">
          <mxGeometry x="554.5" y="594" width="60" height="27" as="geometry" />
        </mxCell>
        <mxCell id="57U_qNmCyxQekRrgPV9h-97" value="" style="endArrow=classic;startArrow=classic;html=1;rounded=0;entryX=0.62;entryY=1.038;entryDx=0;entryDy=0;entryPerimeter=0;" edge="1" parent="1" source="57U_qNmCyxQekRrgPV9h-59" target="57U_qNmCyxQekRrgPV9h-67">
          <mxGeometry width="50" height="50" relative="1" as="geometry">
            <mxPoint x="535" y="582" as="sourcePoint" />
            <mxPoint x="585" y="532" as="targetPoint" />
          </mxGeometry>
        </mxCell>
        <mxCell id="57U_qNmCyxQekRrgPV9h-98" value="" style="shape=umlActor;verticalLabelPosition=bottom;verticalAlign=top;html=1;outlineConnect=0;" vertex="1" parent="1">
          <mxGeometry x="450" y="762" width="30" height="60" as="geometry" />
        </mxCell>
        <mxCell id="57U_qNmCyxQekRrgPV9h-99" value="" style="shape=umlActor;verticalLabelPosition=bottom;verticalAlign=top;html=1;outlineConnect=0;" vertex="1" parent="1">
          <mxGeometry x="604" y="764" width="30" height="60" as="geometry" />
        </mxCell>
        <mxCell id="57U_qNmCyxQekRrgPV9h-101" value="" style="endArrow=none;dashed=1;html=1;dashPattern=1 3;strokeWidth=2;rounded=0;" edge="1" parent="1">
          <mxGeometry width="50" height="50" relative="1" as="geometry">
            <mxPoint x="486" y="818" as="sourcePoint" />
            <mxPoint x="597" y="821" as="targetPoint" />
          </mxGeometry>
        </mxCell>
        <mxCell id="57U_qNmCyxQekRrgPV9h-102" value="" style="endArrow=none;html=1;rounded=0;exitX=0.5;exitY=0;exitDx=0;exitDy=0;exitPerimeter=0;" edge="1" parent="1" source="57U_qNmCyxQekRrgPV9h-98">
          <mxGeometry width="50" height="50" relative="1" as="geometry">
            <mxPoint x="504" y="723" as="sourcePoint" />
            <mxPoint x="522" y="704" as="targetPoint" />
          </mxGeometry>
        </mxCell>
        <mxCell id="57U_qNmCyxQekRrgPV9h-103" value="" style="endArrow=none;html=1;rounded=0;exitX=0.5;exitY=0;exitDx=0;exitDy=0;exitPerimeter=0;entryX=0.649;entryY=1.033;entryDx=0;entryDy=0;entryPerimeter=0;" edge="1" parent="1" source="57U_qNmCyxQekRrgPV9h-99" target="57U_qNmCyxQekRrgPV9h-59">
          <mxGeometry width="50" height="50" relative="1" as="geometry">
            <mxPoint x="475" y="772" as="sourcePoint" />
            <mxPoint x="532" y="714" as="targetPoint" />
          </mxGeometry>
        </mxCell>
        <mxCell id="57U_qNmCyxQekRrgPV9h-104" value="" style="endArrow=none;html=1;rounded=0;entryX=0;entryY=0.25;entryDx=0;entryDy=0;exitX=1;exitY=0.5;exitDx=0;exitDy=0;exitPerimeter=0;" edge="1" parent="1" source="57U_qNmCyxQekRrgPV9h-61" target="57U_qNmCyxQekRrgPV9h-79">
          <mxGeometry width="50" height="50" relative="1" as="geometry">
            <mxPoint x="455" y="629" as="sourcePoint" />
            <mxPoint x="505" y="579" as="targetPoint" />
          </mxGeometry>
        </mxCell>
        <mxCell id="57U_qNmCyxQekRrgPV9h-105" value="manufacturer database" style="text;html=1;strokeColor=none;fillColor=none;align=center;verticalAlign=middle;whiteSpace=wrap;rounded=0;" vertex="1" parent="1">
          <mxGeometry x="450" y="457" width="142" height="20" as="geometry" />
        </mxCell>
        <mxCell id="57U_qNmCyxQekRrgPV9h-106" value="&lt;b&gt;Distributed storage in cloud environment&amp;nbsp;&lt;/b&gt;" style="text;html=1;strokeColor=none;fillColor=none;align=center;verticalAlign=middle;whiteSpace=wrap;rounded=0;" vertex="1" parent="1">
          <mxGeometry x="199" y="431" width="141" height="30" as="geometry" />
        </mxCell>
      </root>
    </mxGraphModel>
  </diagram>
</mxfile>
